<svg width="88" height="88" viewBox="0 0 88 88" fill="none" xmlns="http://www.w3.org/2000/svg">
<path d="M35.5378 56.25C34.6637 55.4931 33.6425 54.0582 31.8454 52.3184C30.9223 51.3355 28.3981 49.5167 27.524 48.7598C26.876 47.9539 26.7779 47.5019 26.8078 46.5489C26.7397 45.1439 27.8505 43.7198 29.4325 43.3766C30.5624 43.1315 31.8885 43.7904 32.9395 44.2723C33.4896 44.6262 34.3636 45.3831 34.9137 45.7371C35.4637 46.091 35.5127 46.317 36.0627 46.671C36.6618 47.2509 36.9858 47.6539 36.5638 46.7989C36.0926 45.718 35.4745 43.959 34.6303 42.2491C34.1102 40.9422 33.8351 40.7652 33.4131 39.9102C32.9419 38.8293 32.5689 38.2003 32.0978 37.1194C31.7247 36.4904 31.1065 34.7315 30.6844 33.8765C30.2133 32.7955 29.7721 30.7616 30.48 29.6615C31.0109 28.8365 32.3178 28.3163 33.3199 28.5722C34.5969 29.0051 35.618 30.44 35.9911 31.069C36.6882 32.1009 37.4833 33.5848 38.1015 35.3437C39.0437 37.5057 40.4571 40.7485 40.6041 41.4265C40.4081 40.5225 39.8389 38.9896 39.8688 38.0366C39.9477 37.3096 40.2036 36.3075 41.0586 35.8854C41.6875 35.5124 42.3655 35.3653 43.0435 35.2182C43.7705 35.2972 44.5465 35.6021 45.0965 35.956C46.2946 37.1159 46.9319 40.0539 46.8829 39.8279C46.9128 38.8749 46.5206 37.0669 46.7765 36.0649C46.9045 35.5639 47.7104 34.9158 48.1134 34.5917C48.7423 34.2187 49.6463 34.0226 50.3733 34.1015C50.8253 34.0035 51.8763 34.4854 52.2003 34.8883C52.7994 35.4683 53.5156 37.6792 53.9377 38.5342C53.9867 38.7601 53.9676 37.5811 54.2725 36.8051C54.8824 35.253 57.9482 34.1147 58.8605 37.2297C59.2037 38.8116 59.1547 38.5856 59.3998 39.7156C59.6449 40.8456 59.792 41.5236 59.9881 42.4275C60.1842 43.3315 60.3994 45.4145 60.3695 46.3675C60.2906 47.0945 59.9558 48.8235 59.4739 49.8746C59.4739 49.8746 57.5762 53.1258 57.6444 54.5308C57.7125 55.9358 57.7125 55.9358 57.9086 56.8398C58.1047 57.7437 58.5758 58.8247 58.5758 58.8247C58.5758 58.8247 56.8169 59.4429 55.8639 59.413C54.9109 59.3831 53.4378 58.0462 53.0647 57.4173C52.4657 56.8373 51.7877 56.9844 51.4828 57.7604C51.2269 58.7624 50.4401 60.5895 49.5361 60.7856C48.0032 61.3548 44.7903 61.8151 42.5303 62.3053C42.5303 62.3053 42.4921 59.9473 41.392 59.2394C40.567 58.7085 39.1919 57.8237 38.3668 57.2927L35.5378 56.25Z" fill="white"/>
<path d="M35.5378 56.25C34.6637 55.4931 33.6425 54.0582 31.8454 52.3184C30.9223 51.3355 28.3981 49.5167 27.524 48.7598C26.876 47.9539 26.7779 47.5019 26.8078 46.5489C26.7397 45.1439 27.8505 43.7198 29.4325 43.3766C30.5624 43.1315 31.8885 43.7904 32.9395 44.2723C33.4896 44.6262 34.3636 45.3831 34.9137 45.7371C35.4637 46.091 35.5127 46.317 36.0627 46.671C36.6618 47.2509 36.9858 47.6539 36.5638 46.7989C36.0926 45.718 35.4745 43.959 34.6303 42.2491C34.1102 40.9422 33.8351 40.7652 33.4131 39.9102C32.9419 38.8293 32.5689 38.2003 32.0978 37.1194C31.7247 36.4904 31.1065 34.7315 30.6844 33.8765C30.2133 32.7955 29.7721 30.7616 30.48 29.6615C31.0109 28.8365 32.3178 28.3163 33.3199 28.5722C34.5969 29.0051 35.618 30.44 35.9911 31.069C36.6882 32.1009 37.4833 33.5848 38.1015 35.3437C39.0437 37.5057 40.4571 40.7485 40.6041 41.4265C40.4081 40.5225 39.8389 38.9896 39.8688 38.0366C39.9477 37.3096 40.2036 36.3075 41.0586 35.8854C41.6875 35.5124 42.3655 35.3653 43.0435 35.2182C43.7705 35.2972 44.5465 35.6021 45.0965 35.956C46.2946 37.1159 46.9319 40.0539 46.8829 39.8279C46.9128 38.8749 46.5206 37.0669 46.7765 36.0649C46.9045 35.5639 47.7104 34.9158 48.1134 34.5917C48.7423 34.2187 49.6463 34.0226 50.3733 34.1015C50.8253 34.0035 51.8763 34.4854 52.2003 34.8883C52.7994 35.4683 53.5156 37.6792 53.9377 38.5342C53.9867 38.7601 53.9676 37.5811 54.2725 36.8051C54.8824 35.2531 57.9482 34.1147 58.8605 37.2297C59.2037 38.8116 59.1547 38.5856 59.3998 39.7156C59.6449 40.8456 59.792 41.5236 59.9881 42.4275C60.1842 43.3315 60.3994 45.4145 60.3695 46.3675C60.2906 47.0945 59.9558 48.8235 59.4739 49.8746C59.4739 49.8746 57.5762 53.1258 57.6444 54.5308C57.7125 55.9358 57.7125 55.9358 57.9086 56.8398C58.1047 57.7437 58.5758 58.8247 58.5758 58.8247C58.5758 58.8247 56.8169 59.4429 55.8639 59.413C54.9109 59.3831 53.4378 58.0462 53.0647 57.4173C52.4657 56.8373 51.7877 56.9844 51.4828 57.7604C51.2269 58.7624 50.4401 60.5895 49.5361 60.7856C48.0032 61.3548 44.7903 61.8151 42.5303 62.3053C42.5303 62.3053 42.4921 59.9473 41.392 59.2394C40.567 58.7085 39.1919 57.8237 38.3668 57.2927L35.5378 56.25Z" stroke="#151E24" stroke-width="0.75" stroke-linecap="round" stroke-linejoin="round"/>
<path d="M54.4421 52.8593L52.7754 45.1755" stroke="#151E24" stroke-width="0.75" stroke-linecap="round"/>
<path d="M49.923 53.8398L48.0302 46.205" stroke="#151E24" stroke-width="0.75" stroke-linecap="round"/>
<path d="M43.7353 47.1366L45.4021 54.8204" stroke="#151E24" stroke-width="0.75" stroke-linecap="round"/>
</svg>
